<?xml version="1.0" encoding="UTF-8" standalone="no"?>
<!DOCTYPE svg PUBLIC "-//W3C//DTD SVG 1.1//EN" "http://www.w3.org/Graphics/SVG/1.1/DTD/svg11.dtd">
<svg width="100%" height="100%" viewBox="0 0 268 345" version="1.1" xmlns="http://www.w3.org/2000/svg" xmlns:xlink="http://www.w3.org/1999/xlink" xml:space="preserve" xmlns:serif="http://www.serif.com/" style="fill-rule:evenodd;clip-rule:evenodd;stroke-linecap:round;stroke-linejoin:round;stroke-miterlimit:1.5;">
    <g transform="matrix(1,0,0,1,-1148.33,-89.3759)">
        <g transform="matrix(1,0,0,1,1077.03,21.0577)">
            <g transform="matrix(1,0,0,0.95,0,20.2993)">
                <g transform="matrix(48,0,0,48,338.15,405.985)">
                </g>
                <text x="71.51px" y="405.985px" style="font-family:'D-DIN', sans-serif;font-size:48px;fill:rgb(22,54,109);">E<tspan x="97.526px 110.39px 134.294px 158.198px 174.278px 190.214px 201.206px 225.11px 254.15px 270.086px 281.078px 305.366px 314.438px 325.046px " y="405.985px 405.985px 405.985px 405.985px 405.985px 405.985px 405.985px 405.985px 405.985px 405.985px 405.985px 405.985px 405.985px 405.985px ">lectricGrid.jl</tspan></text>
            </g>
        </g>
        <g transform="matrix(1,0,0,1,944.006,9.36889)">
            <g id="Logo-3" serif:id="Logo 3">
                <g transform="matrix(1,1.11022e-16,-1.11022e-16,1,-28.8,-69.0858)">
                    <circle cx="366.657" cy="282.629" r="132.2" style="fill:none;stroke:rgb(22,54,109);stroke-width:2.67px;"/>
                </g>
                <g transform="matrix(-0.383342,-0.663968,0.663968,-0.383342,290.755,565.336)">
                    <path d="M252.909,211.91C271.871,181.495 302.691,159.221 338.879,151.576C339.82,151.377 340.746,151.98 340.945,152.921C341.144,153.863 340.541,154.789 339.6,154.987C304.655,162.37 274.852,183.758 256.346,212.993C255.174,212.623 254.028,212.262 252.909,211.91Z" style="fill:rgb(22,54,109);"/>
                </g>
                <g transform="matrix(-0.383342,0.663968,-0.663968,-0.383342,666.069,78.4389)">
                    <path d="M473.835,208.272C455.191,181.462 426.75,161.966 393.715,154.987C392.773,154.788 392.17,153.863 392.369,152.921C392.568,151.98 393.494,151.377 394.435,151.576C428.452,158.762 457.725,178.874 476.865,206.524C475.896,207.083 474.886,207.666 473.835,208.272Z" style="fill:rgb(22,54,109);"/>
                </g>
                <g transform="matrix(-0.383342,0.663968,-0.663968,-0.383342,666.069,78.4389)">
                    <path d="M252.909,211.91C271.871,181.495 302.691,159.221 338.879,151.576C339.82,151.377 340.746,151.98 340.945,152.921C341.144,153.863 340.541,154.789 339.6,154.987C304.655,162.37 274.852,183.758 256.346,212.993C255.174,212.623 254.028,212.262 252.909,211.91Z" style="fill:rgb(22,54,109);"/>
                </g>
                <g transform="matrix(0.766684,0,0,0.766684,56.7469,-3.14384)">
                    <path d="M473.835,208.272C455.191,181.462 426.75,161.966 393.715,154.987C392.773,154.788 392.17,153.863 392.369,152.921C392.568,151.98 393.494,151.377 394.435,151.576C428.452,158.762 457.725,178.874 476.865,206.524C475.896,207.083 474.886,207.666 473.835,208.272Z" style="fill:rgb(22,54,109);"/>
                </g>
                <g transform="matrix(0.766684,0,0,0.766684,56.7469,-3.14384)">
                    <path d="M252.909,211.91C271.871,181.495 302.691,159.221 338.879,151.576C339.82,151.377 340.746,151.98 340.945,152.921C341.144,153.863 340.541,154.789 339.6,154.987C304.655,162.37 274.852,183.758 256.346,212.993C255.174,212.623 254.028,212.262 252.909,211.91Z" style="fill:rgb(22,54,109);"/>
                </g>
                <g transform="matrix(-0.383342,-0.663968,0.663968,-0.383342,290.755,565.336)">
                    <path d="M473.835,208.272C455.191,181.462 426.75,161.966 393.715,154.987C392.773,154.788 392.17,153.863 392.369,152.921C392.568,151.98 393.494,151.377 394.435,151.576C428.452,158.762 457.725,178.874 476.865,206.524C475.896,207.083 474.886,207.666 473.835,208.272Z" style="fill:rgb(22,54,109);"/>
                </g>
                <g id="g7142-0-6-9" transform="matrix(-2.42729,1.4014,-1.4014,-2.42729,509.488,120.569)">
                    <path id="path6293-7-8-9" d="M97.5,-5.61L97.5,9.39" style="fill:none;fill-rule:nonzero;stroke:rgb(22,54,109);stroke-width:0.95px;stroke-miterlimit:4;"/>
                    <path id="path6297-5-4-7" d="M97.5,-0.36L105,-5.61" style="fill:none;fill-rule:nonzero;stroke:rgb(22,54,109);stroke-width:0.95px;stroke-miterlimit:4;"/>
                    <path id="path13661-2-0-6" d="M95.25,-5.61L95.25,9.39" style="fill:none;fill-rule:nonzero;stroke:rgb(22,54,109);stroke-width:0.95px;stroke-miterlimit:4;"/>
                    <path id="path13663-2-3-7" d="M86.25,9.39L95.25,9.39" style="fill:none;fill-rule:nonzero;stroke:rgb(22,54,109);stroke-width:0.95px;stroke-miterlimit:4;"/>
                    <g id="path15704-9-1-6" transform="matrix(-0.308987,-0.178394,0.178394,-0.308987,87.0567,66.9729)">
                        <path d="M49.652,159.971L37.143,164.917L48.605,171.956L49.652,159.971Z" style="fill:rgb(22,54,109);fill-rule:nonzero;"/>
                        <path d="M46.731,165.754C53.985,166.388 62.705,167.149 62.705,167.149" style="fill:none;fill-rule:nonzero;stroke:rgb(22,54,109);stroke-width:2.67px;stroke-linejoin:miter;stroke-miterlimit:4;"/>
                    </g>
                    <path id="path15704-9-1-61" serif:id="path15704-9-1-6" d="M105,9.39L97.5,4.14" style="fill:none;fill-rule:nonzero;stroke:rgb(22,54,109);stroke-width:0.95px;stroke-linejoin:miter;stroke-miterlimit:4;"/>
                </g>
                <g id="g7142-0-6-91" serif:id="g7142-0-6-9" transform="matrix(2.42729,1.4014,-1.4014,2.42729,171.523,111.395)">
                    <path id="path6293-7-8-91" serif:id="path6293-7-8-9" d="M97.5,-5.61L97.5,9.39" style="fill:none;fill-rule:nonzero;stroke:rgb(22,54,109);stroke-width:0.95px;stroke-miterlimit:4;"/>
                    <path id="path6297-5-4-71" serif:id="path6297-5-4-7" d="M97.5,-0.36L105,-5.61" style="fill:none;fill-rule:nonzero;stroke:rgb(22,54,109);stroke-width:0.95px;stroke-miterlimit:4;"/>
                    <path id="path13661-2-0-61" serif:id="path13661-2-0-6" d="M95.25,-5.61L95.25,9.39" style="fill:none;fill-rule:nonzero;stroke:rgb(22,54,109);stroke-width:0.95px;stroke-miterlimit:4;"/>
                    <path id="path13663-2-3-71" serif:id="path13663-2-3-7" d="M86.25,9.39L95.25,9.39" style="fill:none;fill-rule:nonzero;stroke:rgb(22,54,109);stroke-width:0.95px;stroke-miterlimit:4;"/>
                    <g id="path15704-9-1-62" serif:id="path15704-9-1-6" transform="matrix(0.308987,-0.178394,0.178394,0.308987,4.53465,-15.5492)">
                        <path d="M198.372,192.966L208.909,201.326L209.275,187.88L198.372,192.966Z" style="fill:rgb(22,54,109);fill-rule:nonzero;"/>
                        <path d="M204.84,192.604C201.762,186.005 198.062,178.072 198.062,178.072" style="fill:none;fill-rule:nonzero;stroke:rgb(22,54,109);stroke-width:2.67px;stroke-linejoin:miter;stroke-miterlimit:4;"/>
                    </g>
                    <path id="path15704-9-1-63" serif:id="path15704-9-1-6" d="M105,9.39L97.5,4.14" style="fill:none;fill-rule:nonzero;stroke:rgb(22,54,109);stroke-width:0.95px;stroke-linejoin:miter;stroke-miterlimit:4;"/>
                </g>
                <g id="g7142-0-6-92" serif:id="g7142-0-6-9" transform="matrix(1.71622e-16,-2.80279,2.80279,1.71622e-16,332.561,408.668)">
                    <path id="path6293-7-8-92" serif:id="path6293-7-8-9" d="M97.5,-5.61L97.5,9.39" style="fill:none;fill-rule:nonzero;stroke:rgb(22,54,109);stroke-width:0.95px;stroke-miterlimit:4;"/>
                    <path id="path6297-5-4-72" serif:id="path6297-5-4-7" d="M97.5,-0.36L105,-5.61" style="fill:none;fill-rule:nonzero;stroke:rgb(22,54,109);stroke-width:0.95px;stroke-miterlimit:4;"/>
                    <path id="path13661-2-0-62" serif:id="path13661-2-0-6" d="M95.25,-5.61L95.25,9.39" style="fill:none;fill-rule:nonzero;stroke:rgb(22,54,109);stroke-width:0.95px;stroke-miterlimit:4;"/>
                    <path id="path13663-2-3-72" serif:id="path13663-2-3-7" d="M86.25,9.39L95.25,9.39" style="fill:none;fill-rule:nonzero;stroke:rgb(22,54,109);stroke-width:0.95px;stroke-miterlimit:4;"/>
                    <g id="path15704-9-1-64" serif:id="path15704-9-1-6" transform="matrix(2.18469e-17,0.356787,-0.356787,2.18469e-17,117.262,-45.7544)">
                        <path d="M152.586,47.673L154.558,34.368L142.731,40.774L152.586,47.673Z" style="fill:rgb(22,54,109);fill-rule:nonzero;"/>
                        <path d="M149.038,42.252C144.863,48.218 139.843,55.389 139.843,55.389" style="fill:none;fill-rule:nonzero;stroke:rgb(22,54,109);stroke-width:2.67px;stroke-linejoin:miter;stroke-miterlimit:4;"/>
                    </g>
                    <path id="path15704-9-1-65" serif:id="path15704-9-1-6" d="M105,9.39L97.5,4.14" style="fill:none;fill-rule:nonzero;stroke:rgb(22,54,109);stroke-width:0.95px;stroke-linejoin:miter;stroke-miterlimit:4;"/>
                </g>
                <g id="path5103-3-5-9-3-44-7-5-5" transform="matrix(0.21548,-0.373222,-0.373222,-0.21548,798.236,1194.26)">
                    <path d="M1425.82,2089.31C1425.18,2089.4 1424.57,2089.66 1424.27,2089.96L1423.76,2090.45L1423.71,2218.28C1423.66,2330.23 1423.68,2346.2 1423.98,2346.89C1424.4,2347.89 1425.52,2348.42 1426.5,2348.07C1427.27,2347.81 1427.66,2347.27 1428.04,2345.98C1428.14,2345.47 1438.56,2298.75 1451.08,2242.12L1473.84,2139.14L1473.62,2137.48C1472.87,2132.02 1466.94,2118.32 1456.43,2097.79C1453.68,2092.41 1452.25,2089.83 1451.86,2089.58C1451.36,2089.24 1450.05,2089.21 1439.08,2089.18C1432.36,2089.15 1426.39,2089.22 1425.81,2089.3L1425.82,2089.31Z" style="fill:rgb(22,54,109);fill-rule:nonzero;"/>
                </g>
                <g id="path5103-3-5-9-3-44-7-5-51" serif:id="path5103-3-5-9-3-44-7-5-5" transform="matrix(-0.430959,0,0,0.430959,956.993,-675.514)">
                    <path d="M1425.82,2089.31C1425.18,2089.4 1424.57,2089.66 1424.27,2089.96L1423.76,2090.45L1423.71,2218.28C1423.66,2330.23 1423.68,2346.2 1423.98,2346.89C1424.4,2347.89 1425.52,2348.42 1426.5,2348.07C1427.27,2347.81 1427.66,2347.27 1428.04,2345.98C1428.14,2345.47 1438.56,2298.75 1451.08,2242.12L1473.84,2139.14L1473.62,2137.48C1472.87,2132.02 1466.94,2118.32 1456.43,2097.79C1453.68,2092.41 1452.25,2089.83 1451.86,2089.58C1451.36,2089.24 1450.05,2089.21 1439.08,2089.18C1432.36,2089.15 1426.39,2089.22 1425.81,2089.3L1425.82,2089.31Z" style="fill:rgb(22,54,109);fill-rule:nonzero;"/>
                </g>
                <g id="path5103-3-5-9-3-44-7-5-52" serif:id="path5103-3-5-9-3-44-7-5-5" transform="matrix(0.21548,0.373222,0.373222,-0.21548,-741.657,121.885)">
                    <path d="M1425.82,2089.31C1425.18,2089.4 1424.57,2089.66 1424.27,2089.96L1423.76,2090.45L1423.71,2218.28C1423.66,2330.23 1423.68,2346.2 1423.98,2346.89C1424.4,2347.89 1425.52,2348.42 1426.5,2348.07C1427.27,2347.81 1427.66,2347.27 1428.04,2345.98C1428.14,2345.47 1438.56,2298.75 1451.08,2242.12L1473.84,2139.14L1473.62,2137.48C1472.87,2132.02 1466.94,2118.32 1456.43,2097.79C1453.68,2092.41 1452.25,2089.83 1451.86,2089.58C1451.36,2089.24 1450.05,2089.21 1439.08,2089.18C1432.36,2089.15 1426.39,2089.22 1425.81,2089.3L1425.82,2089.31Z" style="fill:rgb(22,54,109);fill-rule:nonzero;"/>
                </g>
                <g transform="matrix(0.0728787,2.02279e-17,-2.02279e-17,0.0728787,311.136,192.946)">
                    <circle cx="366.657" cy="282.629" r="132.2" style="fill:rgb(22,54,109);stroke:rgb(22,54,109);stroke-width:18.2px;"/>
                </g>
            </g>
        </g>
    </g>
</svg>
