<?xml version="1.0" encoding="UTF-8" standalone="no"?>
<!DOCTYPE svg PUBLIC "-//W3C//DTD SVG 1.1//EN" "http://www.w3.org/Graphics/SVG/1.1/DTD/svg11.dtd">
<svg width="100%" height="100%" viewBox="0 0 415 126" version="1.1" xmlns="http://www.w3.org/2000/svg" xmlns:xlink="http://www.w3.org/1999/xlink" xml:space="preserve" xmlns:serif="http://www.serif.com/" style="fill-rule:evenodd;clip-rule:evenodd;stroke-linecap:round;stroke-linejoin:round;stroke-miterlimit:1.5;">
    <g transform="matrix(1,0,0,1,-882.784,-732.878)">
        <g transform="matrix(0.433793,0,0,0.480096,1000.91,595.506)">
            <path d="M88.532,382.583L88.532,405.379L121.285,405.379L121.285,411.647L88.532,411.647L88.532,435.582L126.818,435.582L126.818,441.851L80.455,441.851L80.455,376.314L126.818,376.314L126.818,382.583L88.532,382.583Z" style="fill:rgb(22,54,109);fill-rule:nonzero;"/>
            <path d="M153.706,441.851C149.207,441.851 145.776,440.775 143.416,438.622C141.055,436.469 139.875,433.335 139.875,429.219L139.875,376.314L147.399,376.314L147.399,428.839C147.399,431.308 147.953,433.113 149.059,434.253C150.166,435.392 151.973,435.962 154.481,435.962L159.018,435.962L159.018,441.851L153.706,441.851Z" style="fill:rgb(22,54,109);fill-rule:nonzero;"/>
            <path d="M175.284,419.056L175.284,421.905C175.284,427.351 176.574,431.166 179.156,433.35C181.738,435.535 185.316,436.627 189.89,436.627C193.873,436.627 196.99,435.804 199.24,434.158C201.49,432.511 202.615,430.232 202.615,427.319L202.615,427.034L209.918,427.034L209.918,427.509C209.918,432.005 208.092,435.614 204.44,438.337C200.789,441.06 195.754,442.421 189.336,442.421C182.771,442.421 177.533,440.743 173.624,437.387C169.714,434.031 167.759,428.807 167.759,421.715L167.759,413.357C167.759,406.455 169.714,401.342 173.624,398.017C177.533,394.693 182.697,393.031 189.115,393.031C195.533,393.031 200.678,394.693 204.551,398.017C208.424,401.342 210.36,406.455 210.36,413.357L210.36,419.056L175.284,419.056ZM189.115,398.92C184.91,398.92 181.554,399.98 179.046,402.102C176.538,404.223 175.284,407.911 175.284,413.167L175.284,414.212L202.836,414.212L202.836,412.502C202.836,407.5 201.619,403.985 199.184,401.959C196.75,399.933 193.394,398.92 189.115,398.92Z" style="fill:rgb(22,54,109);fill-rule:nonzero;"/>
            <path d="M244.773,442.421C238.06,442.421 232.73,440.854 228.784,437.72C224.837,434.585 222.864,429.567 222.864,422.665L222.864,412.787C222.864,405.948 224.837,400.946 228.784,397.78C232.73,394.614 238.023,393.031 244.662,393.031C251.08,393.031 256.152,394.487 259.877,397.4C263.602,400.313 265.465,404.207 265.465,409.083L265.465,409.558L258.162,409.558L258.162,409.083C258.162,405.853 256.982,403.352 254.621,401.579C252.26,399.806 249.051,398.92 244.994,398.92C240.421,398.92 236.843,399.98 234.261,402.102C231.679,404.223 230.388,407.911 230.388,413.167L230.388,422.285C230.388,427.604 231.661,431.324 234.206,433.445C236.751,435.567 240.31,436.627 244.884,436.627C249.015,436.627 252.26,435.741 254.621,433.968C256.982,432.195 258.162,429.694 258.162,426.464L258.162,425.989L265.465,425.989L265.465,426.369C265.465,431.245 263.584,435.139 259.822,438.052C256.059,440.965 251.043,442.421 244.773,442.421Z" style="fill:rgb(22,54,109);fill-rule:nonzero;"/>
            <path d="M291.579,398.825L291.579,429.599C291.579,433.968 293.976,436.152 298.771,436.152L303.197,436.152L303.197,441.851L297.554,441.851C293.275,441.851 289.937,440.791 287.54,438.669C285.142,436.548 283.944,433.62 283.944,429.884L283.944,398.825L275.202,398.825L275.202,393.696L283.944,393.696L283.944,382.678L291.579,379.639L291.579,393.696L304.193,393.696L304.193,398.825L291.579,398.825Z" style="fill:rgb(22,54,109);fill-rule:nonzero;"/>
            <path d="M316.807,393.696L324.221,393.696L324.221,400.155C325.77,397.748 327.817,395.96 330.362,394.788C332.907,393.617 335.766,393.031 338.938,393.031C340.339,393.031 341.704,393.126 343.032,393.316L343.032,399.775C341.261,399.268 339.343,399.015 337.278,399.015C333.442,399.015 330.325,400.155 327.928,402.434C325.53,404.714 324.332,407.69 324.332,411.362L324.332,441.851L316.807,441.851L316.807,393.696Z" style="fill:rgb(22,54,109);fill-rule:nonzero;"/>
            <path d="M354.429,393.696L361.953,393.696L361.953,441.851L354.429,441.851L354.429,393.696ZM354.208,377.264L362.175,377.264L362.175,385.812L354.208,385.812L354.208,377.264Z" style="fill:rgb(22,54,109);fill-rule:nonzero;"/>
            <path d="M399.022,442.421C392.309,442.421 386.979,440.854 383.033,437.72C379.086,434.585 377.113,429.567 377.113,422.665L377.113,412.787C377.113,405.948 379.086,400.946 383.033,397.78C386.979,394.614 392.272,393.031 398.911,393.031C405.329,393.031 410.4,394.487 414.126,397.4C417.851,400.313 419.714,404.207 419.714,409.083L419.714,409.558L412.411,409.558L412.411,409.083C412.411,405.853 411.23,403.352 408.87,401.579C406.509,399.806 403.3,398.92 399.243,398.92C394.669,398.92 391.092,399.98 388.51,402.102C385.928,404.223 384.637,407.911 384.637,413.167L384.637,422.285C384.637,427.604 385.909,431.324 388.454,433.445C390.999,435.567 394.559,436.627 399.132,436.627C403.263,436.627 406.509,435.741 408.87,433.968C411.23,432.195 412.411,429.694 412.411,426.464L412.411,425.989L419.714,425.989L419.714,426.369C419.714,431.245 417.833,435.139 414.07,438.052C410.308,440.965 405.292,442.421 399.022,442.421Z" style="fill:rgb(22,54,109);fill-rule:nonzero;"/>
            <path d="M459.659,442.611C451.545,442.611 445.071,440.601 440.24,436.58C435.408,432.559 432.992,426.211 432.992,417.536L432.992,400.534C432.992,391.86 435.408,385.512 440.24,381.491C445.071,377.47 451.545,375.46 459.659,375.46C464.896,375.46 469.47,376.283 473.38,377.929C477.29,379.575 480.314,381.902 482.453,384.91C484.593,387.918 485.662,391.385 485.662,395.311L485.662,395.69L477.585,395.69L477.585,395.311C477.585,391.131 475.98,387.823 472.771,385.385C469.562,382.947 465.228,381.728 459.77,381.728C453.647,381.728 449,383.232 445.827,386.24C442.655,389.248 441.069,394.107 441.069,400.819L441.069,417.916C441.069,430.137 447.34,436.247 459.88,436.247C465.708,436.247 470.152,434.886 473.214,432.163C476.275,429.44 477.806,425.103 477.806,419.151L477.806,414.117L459.548,414.117L459.548,408.133L485.883,408.133L485.883,417.916C485.883,426.528 483.523,432.796 478.802,436.722C474.081,440.648 467.7,442.611 459.659,442.611Z" style="fill:rgb(22,54,109);fill-rule:nonzero;"/>
            <path d="M500.932,393.696L508.346,393.696L508.346,400.155C509.895,397.748 511.942,395.96 514.487,394.788C517.032,393.617 519.891,393.031 523.063,393.031C524.464,393.031 525.829,393.126 527.157,393.316L527.157,399.775C525.386,399.268 523.468,399.015 521.403,399.015C517.567,399.015 514.45,400.155 512.053,402.434C509.655,404.714 508.456,407.69 508.456,411.362L508.456,441.851L500.932,441.851L500.932,393.696Z" style="fill:rgb(22,54,109);fill-rule:nonzero;"/>
            <path d="M538.554,393.696L546.078,393.696L546.078,441.851L538.554,441.851L538.554,393.696ZM538.332,377.264L546.299,377.264L546.299,385.812L538.332,385.812L538.332,377.264Z" style="fill:rgb(22,54,109);fill-rule:nonzero;"/>
            <path d="M580.159,442.421C574.626,442.421 570.09,440.822 566.549,437.625C563.008,434.427 561.237,429.44 561.237,422.665L561.237,412.787C561.237,406.012 563.008,401.025 566.549,397.828C570.09,394.63 574.663,393.031 580.27,393.031C587.056,393.031 592.072,395.5 595.318,400.44L595.318,376.314L602.953,376.314L602.953,441.851L595.318,441.851L595.318,435.487C593.843,437.767 591.833,439.492 589.288,440.664C586.743,441.835 583.7,442.421 580.159,442.421ZM581.265,436.627C585.913,436.627 589.417,435.297 591.777,432.638C594.138,429.979 595.318,426.496 595.318,422.19L595.318,413.737C595.318,409.241 594.175,405.648 591.888,402.956C589.601,400.265 586.208,398.92 581.708,398.92C573.151,398.92 568.872,403.669 568.872,413.167L568.872,422.285C568.872,431.847 573.003,436.627 581.265,436.627Z" style="fill:rgb(22,54,109);fill-rule:nonzero;"/>
            <rect x="616.563" y="433.113" width="9.737" height="8.738" style="fill:rgb(22,54,109);fill-rule:nonzero;"/>
            <path d="M639.579,376.314L647.546,376.314L647.546,384.863L639.579,384.863L639.579,376.314ZM628.292,450.399L632.829,450.399C635.337,450.399 637.145,449.83 638.251,448.69C639.358,447.55 639.911,445.745 639.911,443.276L639.911,393.696L647.435,393.696L647.435,443.656C647.435,447.772 646.255,450.906 643.894,453.059C641.534,455.212 638.104,456.288 633.604,456.288L628.292,456.288L628.292,450.399Z" style="fill:rgb(22,54,109);fill-rule:nonzero;"/>
            <path d="M678.197,441.851C673.697,441.851 670.266,440.775 667.906,438.622C665.545,436.469 664.365,433.335 664.365,429.219L664.365,376.314L671.889,376.314L671.889,428.839C671.889,431.308 672.443,433.113 673.549,434.253C674.656,435.392 676.463,435.962 678.971,435.962L683.508,435.962L683.508,441.851L678.197,441.851Z" style="fill:rgb(22,54,109);fill-rule:nonzero;"/>
        </g>
        <g transform="matrix(0.46601,0,0,0.46601,788.282,696.308)">
            <g id="Logo-3" serif:id="Logo 3">
                <g transform="matrix(1,1.11022e-16,-1.11022e-16,1,-28.8,-69.0858)">
                    <circle cx="366.657" cy="282.629" r="132.2" style="fill:none;stroke:rgb(22,54,109);stroke-width:5.74px;"/>
                </g>
                <g transform="matrix(-0.383342,-0.663968,0.663968,-0.383342,290.755,565.336)">
                    <path d="M252.909,211.91C271.871,181.495 302.691,159.221 338.879,151.576C339.82,151.377 340.746,151.98 340.945,152.921C341.144,153.863 340.541,154.789 339.6,154.987C304.655,162.37 274.852,183.758 256.346,212.993C255.174,212.623 254.028,212.262 252.909,211.91Z" style="fill:rgb(22,54,109);"/>
                </g>
                <g transform="matrix(-0.383342,0.663968,-0.663968,-0.383342,666.069,78.4389)">
                    <path d="M473.835,208.272C455.191,181.462 426.75,161.966 393.715,154.987C392.773,154.788 392.17,153.863 392.369,152.921C392.568,151.98 393.494,151.377 394.435,151.576C428.452,158.762 457.725,178.874 476.865,206.524C475.896,207.083 474.886,207.666 473.835,208.272Z" style="fill:rgb(22,54,109);"/>
                </g>
                <g transform="matrix(-0.383342,0.663968,-0.663968,-0.383342,666.069,78.4389)">
                    <path d="M252.909,211.91C271.871,181.495 302.691,159.221 338.879,151.576C339.82,151.377 340.746,151.98 340.945,152.921C341.144,153.863 340.541,154.789 339.6,154.987C304.655,162.37 274.852,183.758 256.346,212.993C255.174,212.623 254.028,212.262 252.909,211.91Z" style="fill:rgb(22,54,109);"/>
                </g>
                <g transform="matrix(0.766684,0,0,0.766684,56.7469,-3.14384)">
                    <path d="M473.835,208.272C455.191,181.462 426.75,161.966 393.715,154.987C392.773,154.788 392.17,153.863 392.369,152.921C392.568,151.98 393.494,151.377 394.435,151.576C428.452,158.762 457.725,178.874 476.865,206.524C475.896,207.083 474.886,207.666 473.835,208.272Z" style="fill:rgb(22,54,109);"/>
                </g>
                <g transform="matrix(0.766684,0,0,0.766684,56.7469,-3.14384)">
                    <path d="M252.909,211.91C271.871,181.495 302.691,159.221 338.879,151.576C339.82,151.377 340.746,151.98 340.945,152.921C341.144,153.863 340.541,154.789 339.6,154.987C304.655,162.37 274.852,183.758 256.346,212.993C255.174,212.623 254.028,212.262 252.909,211.91Z" style="fill:rgb(22,54,109);"/>
                </g>
                <g transform="matrix(-0.383342,-0.663968,0.663968,-0.383342,290.755,565.336)">
                    <path d="M473.835,208.272C455.191,181.462 426.75,161.966 393.715,154.987C392.773,154.788 392.17,153.863 392.369,152.921C392.568,151.98 393.494,151.377 394.435,151.576C428.452,158.762 457.725,178.874 476.865,206.524C475.896,207.083 474.886,207.666 473.835,208.272Z" style="fill:rgb(22,54,109);"/>
                </g>
                <g id="g7142-0-6-9" transform="matrix(-2.42729,1.4014,-1.4014,-2.42729,509.488,120.569)">
                    <path id="path6293-7-8-9" d="M97.5,-5.61L97.5,9.39" style="fill:none;fill-rule:nonzero;stroke:rgb(22,54,109);stroke-width:0.95px;stroke-miterlimit:4;"/>
                    <path id="path6297-5-4-7" d="M97.5,-0.36L105,-5.61" style="fill:none;fill-rule:nonzero;stroke:rgb(22,54,109);stroke-width:0.95px;stroke-miterlimit:4;"/>
                    <path id="path13661-2-0-6" d="M95.25,-5.61L95.25,9.39" style="fill:none;fill-rule:nonzero;stroke:rgb(22,54,109);stroke-width:0.95px;stroke-miterlimit:4;"/>
                    <path id="path13663-2-3-7" d="M86.25,9.39L95.25,9.39" style="fill:none;fill-rule:nonzero;stroke:rgb(22,54,109);stroke-width:0.95px;stroke-miterlimit:4;"/>
                    <g id="path15704-9-1-6" transform="matrix(-0.663047,-0.38281,0.38281,-0.663047,87.2568,67.7194)">
                        <path d="M23.852,75.262L18.023,77.567L23.364,80.847L23.852,75.262Z" style="fill:rgb(22,54,109);fill-rule:nonzero;"/>
                        <path d="M22.491,77.957C25.871,78.252 29.935,78.607 29.935,78.607" style="fill:none;fill-rule:nonzero;stroke:rgb(22,54,109);stroke-width:1.25px;stroke-linejoin:miter;stroke-miterlimit:4;"/>
                    </g>
                    <path id="path15704-9-1-61" serif:id="path15704-9-1-6" d="M105,9.39L97.5,4.14" style="fill:none;fill-rule:nonzero;stroke:rgb(22,54,109);stroke-width:0.95px;stroke-linejoin:miter;stroke-miterlimit:4;"/>
                </g>
                <g id="g7142-0-6-91" serif:id="g7142-0-6-9" transform="matrix(2.42729,1.4014,-1.4014,2.42729,171.523,111.395)">
                    <path id="path6293-7-8-91" serif:id="path6293-7-8-9" d="M97.5,-5.61L97.5,9.39" style="fill:none;fill-rule:nonzero;stroke:rgb(22,54,109);stroke-width:0.95px;stroke-miterlimit:4;"/>
                    <path id="path6297-5-4-71" serif:id="path6297-5-4-7" d="M97.5,-0.36L105,-5.61" style="fill:none;fill-rule:nonzero;stroke:rgb(22,54,109);stroke-width:0.95px;stroke-miterlimit:4;"/>
                    <path id="path13661-2-0-61" serif:id="path13661-2-0-6" d="M95.25,-5.61L95.25,9.39" style="fill:none;fill-rule:nonzero;stroke:rgb(22,54,109);stroke-width:0.95px;stroke-miterlimit:4;"/>
                    <path id="path13663-2-3-71" serif:id="path13663-2-3-7" d="M86.25,9.39L95.25,9.39" style="fill:none;fill-rule:nonzero;stroke:rgb(22,54,109);stroke-width:0.95px;stroke-miterlimit:4;"/>
                    <g id="path15704-9-1-62" serif:id="path15704-9-1-6" transform="matrix(0.663047,-0.38281,0.38281,0.663047,3.78811,-15.7492)">
                        <path d="M93.157,90.638L98.068,94.534L98.238,88.268L93.157,90.638Z" style="fill:rgb(22,54,109);fill-rule:nonzero;"/>
                        <path d="M96.172,90.469C94.737,87.394 93.013,83.697 93.013,83.697" style="fill:none;fill-rule:nonzero;stroke:rgb(22,54,109);stroke-width:1.25px;stroke-linejoin:miter;stroke-miterlimit:4;"/>
                    </g>
                    <path id="path15704-9-1-63" serif:id="path15704-9-1-6" d="M105,9.39L97.5,4.14" style="fill:none;fill-rule:nonzero;stroke:rgb(22,54,109);stroke-width:0.95px;stroke-linejoin:miter;stroke-miterlimit:4;"/>
                </g>
                <g id="g7142-0-6-92" serif:id="g7142-0-6-9" transform="matrix(1.71622e-16,-2.80279,2.80279,1.71622e-16,332.561,408.668)">
                    <path id="path6293-7-8-92" serif:id="path6293-7-8-9" d="M97.5,-5.61L97.5,9.39" style="fill:none;fill-rule:nonzero;stroke:rgb(22,54,109);stroke-width:0.95px;stroke-miterlimit:4;"/>
                    <path id="path6297-5-4-72" serif:id="path6297-5-4-7" d="M97.5,-0.36L105,-5.61" style="fill:none;fill-rule:nonzero;stroke:rgb(22,54,109);stroke-width:0.95px;stroke-miterlimit:4;"/>
                    <path id="path13661-2-0-62" serif:id="path13661-2-0-6" d="M95.25,-5.61L95.25,9.39" style="fill:none;fill-rule:nonzero;stroke:rgb(22,54,109);stroke-width:0.95px;stroke-miterlimit:4;"/>
                    <path id="path13663-2-3-72" serif:id="path13663-2-3-7" d="M86.25,9.39L95.25,9.39" style="fill:none;fill-rule:nonzero;stroke:rgb(22,54,109);stroke-width:0.95px;stroke-miterlimit:4;"/>
                    <g id="path15704-9-1-64" serif:id="path15704-9-1-6" transform="matrix(4.68808e-17,0.765621,-0.765621,4.68808e-17,117.808,-46.3009)">
                        <path d="M71.821,22.93L72.739,16.729L67.228,19.715L71.821,22.93Z" style="fill:rgb(22,54,109);fill-rule:nonzero;"/>
                        <path d="M70.167,20.404C68.221,23.184 65.882,26.525 65.882,26.525" style="fill:none;fill-rule:nonzero;stroke:rgb(22,54,109);stroke-width:1.25px;stroke-linejoin:miter;stroke-miterlimit:4;"/>
                    </g>
                    <path id="path15704-9-1-65" serif:id="path15704-9-1-6" d="M105,9.39L97.5,4.14" style="fill:none;fill-rule:nonzero;stroke:rgb(22,54,109);stroke-width:0.95px;stroke-linejoin:miter;stroke-miterlimit:4;"/>
                </g>
                <g id="path5103-3-5-9-3-44-7-5-5" transform="matrix(0.21548,-0.373222,-0.373222,-0.21548,798.236,1194.26)">
                    <path d="M1425.82,2089.31C1425.18,2089.4 1424.57,2089.66 1424.27,2089.96L1423.76,2090.45L1423.71,2218.28C1423.66,2330.23 1423.68,2346.2 1423.98,2346.89C1424.4,2347.89 1425.52,2348.42 1426.5,2348.07C1427.27,2347.81 1427.66,2347.27 1428.04,2345.98C1428.14,2345.47 1438.56,2298.75 1451.08,2242.12L1473.84,2139.14L1473.62,2137.48C1472.87,2132.02 1466.94,2118.32 1456.43,2097.79C1453.68,2092.41 1452.25,2089.83 1451.86,2089.58C1451.36,2089.24 1450.05,2089.21 1439.08,2089.18C1432.36,2089.15 1426.39,2089.22 1425.81,2089.3L1425.82,2089.31Z" style="fill:rgb(22,54,109);fill-rule:nonzero;"/>
                </g>
                <g id="path5103-3-5-9-3-44-7-5-51" serif:id="path5103-3-5-9-3-44-7-5-5" transform="matrix(-0.430959,0,0,0.430959,956.993,-675.514)">
                    <path d="M1425.82,2089.31C1425.18,2089.4 1424.57,2089.66 1424.27,2089.96L1423.76,2090.45L1423.71,2218.28C1423.66,2330.23 1423.68,2346.2 1423.98,2346.89C1424.4,2347.89 1425.52,2348.42 1426.5,2348.07C1427.27,2347.81 1427.66,2347.27 1428.04,2345.98C1428.14,2345.47 1438.56,2298.75 1451.08,2242.12L1473.84,2139.14L1473.62,2137.48C1472.87,2132.02 1466.94,2118.32 1456.43,2097.79C1453.68,2092.41 1452.25,2089.83 1451.86,2089.58C1451.36,2089.24 1450.05,2089.21 1439.08,2089.18C1432.36,2089.15 1426.39,2089.22 1425.81,2089.3L1425.82,2089.31Z" style="fill:rgb(22,54,109);fill-rule:nonzero;"/>
                </g>
                <g id="path5103-3-5-9-3-44-7-5-52" serif:id="path5103-3-5-9-3-44-7-5-5" transform="matrix(0.21548,0.373222,0.373222,-0.21548,-741.657,121.885)">
                    <path d="M1425.82,2089.31C1425.18,2089.4 1424.57,2089.66 1424.27,2089.96L1423.76,2090.45L1423.71,2218.28C1423.66,2330.23 1423.68,2346.2 1423.98,2346.89C1424.4,2347.89 1425.52,2348.42 1426.5,2348.07C1427.27,2347.81 1427.66,2347.27 1428.04,2345.98C1428.14,2345.47 1438.56,2298.75 1451.08,2242.12L1473.84,2139.14L1473.62,2137.48C1472.87,2132.02 1466.94,2118.32 1456.43,2097.79C1453.68,2092.41 1452.25,2089.83 1451.86,2089.58C1451.36,2089.24 1450.05,2089.21 1439.08,2089.18C1432.36,2089.15 1426.39,2089.22 1425.81,2089.3L1425.82,2089.31Z" style="fill:rgb(22,54,109);fill-rule:nonzero;"/>
                </g>
                <g transform="matrix(0.0728787,2.02279e-17,-2.02279e-17,0.0728787,311.136,192.946)">
                    <circle cx="366.657" cy="282.629" r="132.2" style="fill:rgb(22,54,109);stroke:rgb(22,54,109);stroke-width:39.06px;"/>
                </g>
            </g>
        </g>
    </g>
</svg>
