<?xml version="1.0" encoding="UTF-8" standalone="no"?>
<!DOCTYPE svg PUBLIC "-//W3C//DTD SVG 1.1//EN" "http://www.w3.org/Graphics/SVG/1.1/DTD/svg11.dtd">
<svg width="100%" height="100%" viewBox="0 0 528 126" version="1.1" xmlns="http://www.w3.org/2000/svg" xmlns:xlink="http://www.w3.org/1999/xlink" xml:space="preserve" xmlns:serif="http://www.serif.com/" style="fill-rule:evenodd;clip-rule:evenodd;stroke-linecap:round;stroke-linejoin:round;stroke-miterlimit:1.5;">
    <g transform="matrix(1,0,0,1,-882.784,-732.878)">
        <g transform="matrix(0.46601,0,0,0.46601,788.282,696.308)">
            <g id="Logo-3" serif:id="Logo 3">
                <g transform="matrix(1,1.11022e-16,-1.11022e-16,1,-28.8,-69.0858)">
                    <circle cx="366.657" cy="282.629" r="132.2" style="fill:none;stroke:rgb(22,54,109);stroke-width:5.74px;"/>
                </g>
                <g transform="matrix(-0.383342,-0.663968,0.663968,-0.383342,290.755,565.336)">
                    <path d="M252.909,211.91C271.871,181.495 302.691,159.221 338.879,151.576C339.82,151.377 340.746,151.98 340.945,152.921C341.144,153.863 340.541,154.789 339.6,154.987C304.655,162.37 274.852,183.758 256.346,212.993C255.174,212.623 254.028,212.262 252.909,211.91Z" style="fill:rgb(22,54,109);"/>
                </g>
                <g transform="matrix(-0.383342,0.663968,-0.663968,-0.383342,666.069,78.4389)">
                    <path d="M473.835,208.272C455.191,181.462 426.75,161.966 393.715,154.987C392.773,154.788 392.17,153.863 392.369,152.921C392.568,151.98 393.494,151.377 394.435,151.576C428.452,158.762 457.725,178.874 476.865,206.524C475.896,207.083 474.886,207.666 473.835,208.272Z" style="fill:rgb(22,54,109);"/>
                </g>
                <g transform="matrix(-0.383342,0.663968,-0.663968,-0.383342,666.069,78.4389)">
                    <path d="M252.909,211.91C271.871,181.495 302.691,159.221 338.879,151.576C339.82,151.377 340.746,151.98 340.945,152.921C341.144,153.863 340.541,154.789 339.6,154.987C304.655,162.37 274.852,183.758 256.346,212.993C255.174,212.623 254.028,212.262 252.909,211.91Z" style="fill:rgb(22,54,109);"/>
                </g>
                <g transform="matrix(0.766684,0,0,0.766684,56.7469,-3.14384)">
                    <path d="M473.835,208.272C455.191,181.462 426.75,161.966 393.715,154.987C392.773,154.788 392.17,153.863 392.369,152.921C392.568,151.98 393.494,151.377 394.435,151.576C428.452,158.762 457.725,178.874 476.865,206.524C475.896,207.083 474.886,207.666 473.835,208.272Z" style="fill:rgb(22,54,109);"/>
                </g>
                <g transform="matrix(0.766684,0,0,0.766684,56.7469,-3.14384)">
                    <path d="M252.909,211.91C271.871,181.495 302.691,159.221 338.879,151.576C339.82,151.377 340.746,151.98 340.945,152.921C341.144,153.863 340.541,154.789 339.6,154.987C304.655,162.37 274.852,183.758 256.346,212.993C255.174,212.623 254.028,212.262 252.909,211.91Z" style="fill:rgb(22,54,109);"/>
                </g>
                <g transform="matrix(-0.383342,-0.663968,0.663968,-0.383342,290.755,565.336)">
                    <path d="M473.835,208.272C455.191,181.462 426.75,161.966 393.715,154.987C392.773,154.788 392.17,153.863 392.369,152.921C392.568,151.98 393.494,151.377 394.435,151.576C428.452,158.762 457.725,178.874 476.865,206.524C475.896,207.083 474.886,207.666 473.835,208.272Z" style="fill:rgb(22,54,109);"/>
                </g>
                <g id="g7142-0-6-9" transform="matrix(-2.42729,1.4014,-1.4014,-2.42729,509.488,120.569)">
                    <path id="path6293-7-8-9" d="M97.5,-5.61L97.5,9.39" style="fill:none;fill-rule:nonzero;stroke:rgb(22,54,109);stroke-width:0.95px;stroke-miterlimit:4;"/>
                    <path id="path6297-5-4-7" d="M97.5,-0.36L105,-5.61" style="fill:none;fill-rule:nonzero;stroke:rgb(22,54,109);stroke-width:0.95px;stroke-miterlimit:4;"/>
                    <path id="path13661-2-0-6" d="M95.25,-5.61L95.25,9.39" style="fill:none;fill-rule:nonzero;stroke:rgb(22,54,109);stroke-width:0.95px;stroke-miterlimit:4;"/>
                    <path id="path13663-2-3-7" d="M86.25,9.39L95.25,9.39" style="fill:none;fill-rule:nonzero;stroke:rgb(22,54,109);stroke-width:0.95px;stroke-miterlimit:4;"/>
                    <g id="path15704-9-1-6" transform="matrix(-0.663047,-0.38281,0.38281,-0.663047,87.2568,67.7194)">
                        <path d="M23.852,75.262L18.023,77.567L23.364,80.847L23.852,75.262Z" style="fill:rgb(22,54,109);fill-rule:nonzero;"/>
                        <path d="M22.491,77.957C25.871,78.252 29.935,78.607 29.935,78.607" style="fill:none;fill-rule:nonzero;stroke:rgb(22,54,109);stroke-width:1.25px;stroke-linejoin:miter;stroke-miterlimit:4;"/>
                    </g>
                    <path id="path15704-9-1-61" serif:id="path15704-9-1-6" d="M105,9.39L97.5,4.14" style="fill:none;fill-rule:nonzero;stroke:rgb(22,54,109);stroke-width:0.95px;stroke-linejoin:miter;stroke-miterlimit:4;"/>
                </g>
                <g id="g7142-0-6-91" serif:id="g7142-0-6-9" transform="matrix(2.42729,1.4014,-1.4014,2.42729,171.523,111.395)">
                    <path id="path6293-7-8-91" serif:id="path6293-7-8-9" d="M97.5,-5.61L97.5,9.39" style="fill:none;fill-rule:nonzero;stroke:rgb(22,54,109);stroke-width:0.95px;stroke-miterlimit:4;"/>
                    <path id="path6297-5-4-71" serif:id="path6297-5-4-7" d="M97.5,-0.36L105,-5.61" style="fill:none;fill-rule:nonzero;stroke:rgb(22,54,109);stroke-width:0.95px;stroke-miterlimit:4;"/>
                    <path id="path13661-2-0-61" serif:id="path13661-2-0-6" d="M95.25,-5.61L95.25,9.39" style="fill:none;fill-rule:nonzero;stroke:rgb(22,54,109);stroke-width:0.95px;stroke-miterlimit:4;"/>
                    <path id="path13663-2-3-71" serif:id="path13663-2-3-7" d="M86.25,9.39L95.25,9.39" style="fill:none;fill-rule:nonzero;stroke:rgb(22,54,109);stroke-width:0.95px;stroke-miterlimit:4;"/>
                    <g id="path15704-9-1-62" serif:id="path15704-9-1-6" transform="matrix(0.663047,-0.38281,0.38281,0.663047,3.78811,-15.7492)">
                        <path d="M93.157,90.638L98.068,94.534L98.238,88.268L93.157,90.638Z" style="fill:rgb(22,54,109);fill-rule:nonzero;"/>
                        <path d="M96.172,90.469C94.737,87.394 93.013,83.697 93.013,83.697" style="fill:none;fill-rule:nonzero;stroke:rgb(22,54,109);stroke-width:1.25px;stroke-linejoin:miter;stroke-miterlimit:4;"/>
                    </g>
                    <path id="path15704-9-1-63" serif:id="path15704-9-1-6" d="M105,9.39L97.5,4.14" style="fill:none;fill-rule:nonzero;stroke:rgb(22,54,109);stroke-width:0.95px;stroke-linejoin:miter;stroke-miterlimit:4;"/>
                </g>
                <g id="g7142-0-6-92" serif:id="g7142-0-6-9" transform="matrix(1.71622e-16,-2.80279,2.80279,1.71622e-16,332.561,408.668)">
                    <path id="path6293-7-8-92" serif:id="path6293-7-8-9" d="M97.5,-5.61L97.5,9.39" style="fill:none;fill-rule:nonzero;stroke:rgb(22,54,109);stroke-width:0.95px;stroke-miterlimit:4;"/>
                    <path id="path6297-5-4-72" serif:id="path6297-5-4-7" d="M97.5,-0.36L105,-5.61" style="fill:none;fill-rule:nonzero;stroke:rgb(22,54,109);stroke-width:0.95px;stroke-miterlimit:4;"/>
                    <path id="path13661-2-0-62" serif:id="path13661-2-0-6" d="M95.25,-5.61L95.25,9.39" style="fill:none;fill-rule:nonzero;stroke:rgb(22,54,109);stroke-width:0.95px;stroke-miterlimit:4;"/>
                    <path id="path13663-2-3-72" serif:id="path13663-2-3-7" d="M86.25,9.39L95.25,9.39" style="fill:none;fill-rule:nonzero;stroke:rgb(22,54,109);stroke-width:0.95px;stroke-miterlimit:4;"/>
                    <g id="path15704-9-1-64" serif:id="path15704-9-1-6" transform="matrix(4.68808e-17,0.765621,-0.765621,4.68808e-17,117.808,-46.3009)">
                        <path d="M71.821,22.93L72.739,16.729L67.228,19.715L71.821,22.93Z" style="fill:rgb(22,54,109);fill-rule:nonzero;"/>
                        <path d="M70.167,20.404C68.221,23.184 65.882,26.525 65.882,26.525" style="fill:none;fill-rule:nonzero;stroke:rgb(22,54,109);stroke-width:1.25px;stroke-linejoin:miter;stroke-miterlimit:4;"/>
                    </g>
                    <path id="path15704-9-1-65" serif:id="path15704-9-1-6" d="M105,9.39L97.5,4.14" style="fill:none;fill-rule:nonzero;stroke:rgb(22,54,109);stroke-width:0.95px;stroke-linejoin:miter;stroke-miterlimit:4;"/>
                </g>
                <g id="path5103-3-5-9-3-44-7-5-5" transform="matrix(0.21548,-0.373222,-0.373222,-0.21548,798.236,1194.26)">
                    <path d="M1425.82,2089.31C1425.18,2089.4 1424.57,2089.66 1424.27,2089.96L1423.76,2090.45L1423.71,2218.28C1423.66,2330.23 1423.68,2346.2 1423.98,2346.89C1424.4,2347.89 1425.52,2348.42 1426.5,2348.07C1427.27,2347.81 1427.66,2347.27 1428.04,2345.98C1428.14,2345.47 1438.56,2298.75 1451.08,2242.12L1473.84,2139.14L1473.62,2137.48C1472.87,2132.02 1466.94,2118.32 1456.43,2097.79C1453.68,2092.41 1452.25,2089.83 1451.86,2089.58C1451.36,2089.24 1450.05,2089.21 1439.08,2089.18C1432.36,2089.15 1426.39,2089.22 1425.81,2089.3L1425.82,2089.31Z" style="fill:rgb(22,54,109);fill-rule:nonzero;"/>
                </g>
                <g id="path5103-3-5-9-3-44-7-5-51" serif:id="path5103-3-5-9-3-44-7-5-5" transform="matrix(-0.430959,0,0,0.430959,956.993,-675.514)">
                    <path d="M1425.82,2089.31C1425.18,2089.4 1424.57,2089.66 1424.27,2089.96L1423.76,2090.45L1423.71,2218.28C1423.66,2330.23 1423.68,2346.2 1423.98,2346.89C1424.4,2347.89 1425.52,2348.42 1426.5,2348.07C1427.27,2347.81 1427.66,2347.27 1428.04,2345.98C1428.14,2345.47 1438.56,2298.75 1451.08,2242.12L1473.84,2139.14L1473.62,2137.48C1472.87,2132.02 1466.94,2118.32 1456.43,2097.79C1453.68,2092.41 1452.25,2089.83 1451.86,2089.58C1451.36,2089.24 1450.05,2089.21 1439.08,2089.18C1432.36,2089.15 1426.39,2089.22 1425.81,2089.3L1425.82,2089.31Z" style="fill:rgb(22,54,109);fill-rule:nonzero;"/>
                </g>
                <g id="path5103-3-5-9-3-44-7-5-52" serif:id="path5103-3-5-9-3-44-7-5-5" transform="matrix(0.21548,0.373222,0.373222,-0.21548,-741.657,121.885)">
                    <path d="M1425.82,2089.31C1425.18,2089.4 1424.57,2089.66 1424.27,2089.96L1423.76,2090.45L1423.71,2218.28C1423.66,2330.23 1423.68,2346.2 1423.98,2346.89C1424.4,2347.89 1425.52,2348.42 1426.5,2348.07C1427.27,2347.81 1427.66,2347.27 1428.04,2345.98C1428.14,2345.47 1438.56,2298.75 1451.08,2242.12L1473.84,2139.14L1473.62,2137.48C1472.87,2132.02 1466.94,2118.32 1456.43,2097.79C1453.68,2092.41 1452.25,2089.83 1451.86,2089.58C1451.36,2089.24 1450.05,2089.21 1439.08,2089.18C1432.36,2089.15 1426.39,2089.22 1425.81,2089.3L1425.82,2089.31Z" style="fill:rgb(22,54,109);fill-rule:nonzero;"/>
                </g>
                <g transform="matrix(0.0728787,2.02279e-17,-2.02279e-17,0.0728787,311.136,192.946)">
                    <circle cx="366.657" cy="282.629" r="132.2" style="fill:rgb(22,54,109);stroke:rgb(22,54,109);stroke-width:39.06px;"/>
                </g>
            </g>
        </g>
        <g transform="matrix(1.00846,0,0,0.893844,874.872,434.55)">
            <g id="Schriftzug-JEG" serif:id="Schriftzug JEG">
                <path d="M223.413,429.582L229.311,429.582C231.657,429.582 233.33,429.036 234.33,427.946C235.33,426.855 235.83,425.098 235.83,422.674L235.83,372.865L243.384,372.865L243.384,423.492C243.384,427.431 242.28,430.43 240.073,432.49C237.865,434.551 234.658,435.581 230.45,435.581L223.413,435.581L223.413,429.582Z" style="fill:rgb(22,54,109);fill-rule:nonzero;"/>
                <path d="M351.103,378.864L351.103,400.678L381.732,400.678L381.732,406.677L351.103,406.677L351.103,429.582L386.906,429.582L386.906,435.581L343.549,435.581L343.549,372.865L386.906,372.865L386.906,378.864L351.103,378.864Z" style="fill:rgb(22,54,109);fill-rule:nonzero;"/>
                <path d="M506.421,436.308C498.833,436.308 492.78,434.384 488.261,430.536C483.743,426.688 481.484,420.614 481.484,412.312L481.484,396.043C481.484,387.741 483.743,381.666 488.261,377.819C492.78,373.971 498.833,372.047 506.421,372.047C511.319,372.047 515.596,372.835 519.252,374.41C522.909,375.986 525.737,378.213 527.738,381.091C529.738,383.969 530.738,387.287 530.738,391.043L530.738,391.407L523.185,391.407L523.185,391.043C523.185,387.044 521.684,383.878 518.683,381.545C515.683,379.212 511.63,378.046 506.525,378.046C500.799,378.046 496.453,379.485 493.487,382.363C490.521,385.242 489.037,389.892 489.037,396.315L489.037,412.676C489.037,424.371 494.901,430.218 506.628,430.218C512.078,430.218 516.234,428.915 519.097,426.31C521.96,423.704 523.392,419.553 523.392,413.857L523.392,409.04L506.318,409.04L506.318,403.314L530.945,403.314L530.945,412.676C530.945,420.917 528.738,426.916 524.323,430.672C519.908,434.429 513.941,436.308 506.421,436.308Z" style="fill:rgb(22,54,109);fill-rule:nonzero;"/>
            </g>
        </g>
    </g>
</svg>
